<?xml version="1.0" encoding="utf-8"?>
<!-- Generated by IcoMoon.io -->
<!DOCTYPE svg PUBLIC "-//W3C//DTD SVG 1.1//EN" "http://www.w3.org/Graphics/SVG/1.1/DTD/svg11.dtd">

<svg version="1.1" xmlns="http://www.w3.org/2000/svg" xmlns:xlink="http://www.w3.org/1999/xlink" width="102" height="32" viewBox="0 0 102 32">
<defs>
<g id="icon-pao2">
	<path class="path1" d="M18.623 26.085h10.86c1.411 0 2.555-1.021 2.555-2.281v-11.822c0-1.26-1.144-2.281-2.555-2.281h-10.717c0 0-0.371-0.405-0.257-0.906-0.251 0.011-0.79 0.906-0.852 0.906-1.182 0.072-1.487 0.462-1.59 2.281v11.822c0 1.26 1.144 2.281 2.555 2.281z"></path>
</g>
<g id="icon-pao1">
	<path class="path1" d="M24.95 12.146h-10.717l-0.576-0.986c0 0-0.471 0.986-0.532 0.986-1.182 0.072-1.487 0.462-1.59 2.281v4.026c0 1.26 1.144 2.281 2.555 2.281h10.86c1.411 0 2.555-1.021 2.555-2.281v-4.026c0-1.26-1.144-2.281-2.555-2.281z"></path>
</g>
</defs>

<g fill="#000000">
	<use xlink:href="#icon-pao2" transform="translate(0 0)"></use>
	<use xlink:href="#icon-pao1" transform="translate(59 0)"></use>
</g>

</svg>
